<svg width="445" height="332" xmlns="http://www.w3.org/2000/svg" xmlns:xlink="http://www.w3.org/1999/xlink" overflow="hidden"><defs><clipPath id="clip0"><rect x="-54" y="-5" width="445" height="332"/></clipPath><radialGradient cx="4.1529e+06" cy="3.06705e+06" r="5.16269e+06" fx="4.1529e+06" gradientUnits="userSpaceOnUse" spreadMethod="pad" id="fill1" gradientTransform="matrix(0.000104987 0 0 0.000104987 -50 0)"><stop offset="0" stop-color="#3B3838"/><stop offset="0.0222222" stop-color="#3A3737"/><stop offset="0.0444444" stop-color="#3A3737"/><stop offset="0.0666667" stop-color="#3A3737"/><stop offset="0.0888889" stop-color="#3A3737"/><stop offset="0.111111" stop-color="#3A3737"/><stop offset="0.133333" stop-color="#393737"/><stop offset="0.155556" stop-color="#393636"/><stop offset="0.177778" stop-color="#393636"/><stop offset="0.2" stop-color="#383535"/><stop offset="0.222222" stop-color="#383535"/><stop offset="0.244444" stop-color="#373434"/><stop offset="0.266667" stop-color="#373434"/><stop offset="0.288889" stop-color="#363333"/><stop offset="0.311111" stop-color="#353333"/><stop offset="0.333333" stop-color="#353232"/><stop offset="0.355556" stop-color="#343131"/><stop offset="0.377778" stop-color="#333131"/><stop offset="0.4" stop-color="#323030"/><stop offset="0.422222" stop-color="#312F2F"/><stop offset="0.444444" stop-color="#302E2E"/><stop offset="0.466667" stop-color="#2F2D2D"/><stop offset="0.488889" stop-color="#2E2C2C"/><stop offset="0.511111" stop-color="#2D2B2B"/><stop offset="0.533333" stop-color="#2C2A2A"/><stop offset="0.555556" stop-color="#2B2929"/><stop offset="0.577778" stop-color="#2A2828"/><stop offset="0.6" stop-color="#292727"/><stop offset="0.622222" stop-color="#282626"/><stop offset="0.644444" stop-color="#262525"/><stop offset="0.666667" stop-color="#252323"/><stop offset="0.688889" stop-color="#242222"/><stop offset="0.711111" stop-color="#222121"/><stop offset="0.733333" stop-color="#211F1F"/><stop offset="0.755556" stop-color="#1F1E1E"/><stop offset="0.777778" stop-color="#1E1D1D"/><stop offset="0.8" stop-color="#1C1B1B"/><stop offset="0.822222" stop-color="#1B1A1A"/><stop offset="0.844444" stop-color="#191818"/><stop offset="0.866667" stop-color="#171717"/><stop offset="0.888889" stop-color="#161515"/><stop offset="0.911111" stop-color="#141313"/><stop offset="0.933333" stop-color="#121212"/><stop offset="0.955556" stop-color="#101010"/><stop offset="0.977778" stop-color="#0E0E0E"/><stop offset="1" stop-color="#0D0D0D"/></radialGradient></defs><g clip-path="url(#clip0)" transform="translate(54 5)"><path d="M-50 117.781C-50 52.7324 2.73236-4.16315e-14 67.781-2.77543e-14L268.219 0C333.268-2.77543e-14 386 52.7324 386 117.781L386 204.219C386 269.268 333.268 322 268.219 322L67.781 322C2.73236 322-50 269.268-50 204.219Z" stroke="#FFD966" stroke-width="8" stroke-miterlimit="8" fill="url(#fill1)" fill-rule="evenodd"/><path d="M91.4956 199.103 90.9493 221.038C102.46 221.585 108.215 217.644 108.215 209.215 108.215 202.477 103.136 199.108 92.9776 199.108 91.9559 199.108 91.4618 199.107 91.4956 199.103ZM94.0534 144.998 92.6202 172.569C105.391 173.057 111.776 168.538 111.776 159.013 111.776 154.4 109.914 150.861 106.19 148.397 102.614 146.021 98.5687 144.888 94.0534 144.998ZM71.2371 79.5438C129.917 79.5438 159.256 99.3987 159.256 139.109 159.256 152.211 156.089 163.575 149.755 173.201 144.393 181.273 138.104 186.375 130.886 188.506 135.339 189.489 139.238 192.604 142.583 197.854 145.929 203.103 147.602 208.658 147.602 214.518 147.602 229.131 139.851 239.814 124.347 246.565 112.82 251.617 97.7313 254.142 79.0808 254.142 63.0764 254.142 45.4331 252.764 26.1509 250.006 25.6215 232.463 24.5767 205.119 23.0165 167.973 21.9463 147.913 20.3468 119.872 18.2178 83.8501 32.9914 80.9793 50.6645 79.5438 71.2371 79.5438Z" stroke="#FFD966" stroke-width="6" stroke-linejoin="round" stroke-miterlimit="10" fill-rule="evenodd"/><text fill="#000000" fill-opacity="0" font-family="Arial,Arial_MSFontService,sans-serif" font-size="174.599" x="18.2178" y="232.318">B</text><path d="M186.177 83.4286 322.144 83.4286 318.977 154.326C314.445 153.873 309.204 153.329 303.253 152.695 299.617 152.485 294.326 152.273 287.38 152.059 287.087 155.025 286.422 164.438 285.385 180.3 284.625 195.678 283.338 218.997 281.524 250.258L226.077 250.258C225.464 234.759 224.382 211.733 222.829 181.18 222.119 170.527 221.429 160.82 220.761 152.059L206.392 152.698 188.968 154.326Z" stroke="#FFD966" stroke-width="6" stroke-linejoin="round" stroke-miterlimit="10" fill-rule="evenodd"/><text fill="#000000" fill-opacity="0" font-family="Arial,Arial_MSFontService,sans-serif" font-size="166.829" x="186.177" y="229.404">T</text></g></svg>